<?xml version="1.0" standalone="no"?>
<!DOCTYPE svg PUBLIC "-//W3C//DTD SVG 20010904//EN"
 "http://www.w3.org/TR/2001/REC-SVG-20010904/DTD/svg10.dtd">
<svg version="1.0" xmlns="http://www.w3.org/2000/svg"
 width="32.000000pt" height="32.000000pt" viewBox="0 0 32.000000 32.000000"
 preserveAspectRatio="xMidYMid meet">

<g transform="translate(0.000000,32.000000) scale(0.100000,-0.100000)"
fill="#000000" stroke="none">
<path d="M92 304 c-107 -55 -121 -198 -26 -271 96 -73 238 -10 251 111 14 119
-120 214 -225 160z m83 -104 l39 -40 -41 -42 c-23 -23 -46 -39 -49 -35 -4 4 8
23 26 42 l34 35 -32 33 c-18 18 -32 36 -32 40 0 16 18 5 55 -33z"/>
</g>
</svg>
