<?xml version="1.0" standalone="no"?>
<!DOCTYPE svg PUBLIC "-//W3C//DTD SVG 20010904//EN"
 "http://www.w3.org/TR/2001/REC-SVG-20010904/DTD/svg10.dtd">
<svg version="1.0" xmlns="http://www.w3.org/2000/svg"
 width="32.000000pt" height="32.000000pt" viewBox="0 0 32.000000 32.000000"
 preserveAspectRatio="xMidYMid meet">

<g transform="translate(0.000000,32.000000) scale(0.100000,-0.100000)"
fill="#000000" stroke="none">
<path d="M90 291 c-42 -22 -80 -83 -80 -129 0 -78 73 -152 150 -152 76 0 150
74 150 150 0 109 -124 183 -220 131z m100 -68 c0 -4 -12 -20 -27 -35 l-27 -28
29 -30 c42 -44 21 -51 -22 -7 l-37 37 34 35 c32 33 50 43 50 28z"/>
</g>
</svg>
